<svg viewBox="0 0 40 40" fill="none" xmlns="http://www.w3.org/2000/svg">
  <path fill="#3B99FC" d="M12.5 14.5c4.5-4.4 11.8-4.4 16.3 0l.5.5a.6.6 0 010 .8l-1.9 1.9a.3.3 0 01-.4 0l-.8-.8c-3.1-3-8.2-3-11.3 0l-.9.8a.3.3 0 01-.4 0l-1.9-1.9a.6.6 0 010-.8l.6-.5z"/>
  <path fill="#3B99FC" d="M15.2 18.8c3.1-3 8.2-3 11.3 0l.4.4a.3.3 0 010 .4l-1.9 1.9a.2.2 0 01-.2 0 7.2 7.2 0 00-9.8 0 .2.2 0 01-.2 0l-1.9-1.9a.3.3 0 010-.4l.5-.4z"/>
  <path fill="#3B99FC" fill-rule="evenodd" d="M8 24.2l2.7-2.6a.2.2 0 000-.3 12.2 12.2 0 000-17.2.2.2 0 000-.3L8 1.2a.6.6 0 00-.9 0C3.3 5.2 1.2 10.6 1.2 16.2s2.1 11 5.9 15a.6.6 0 00.9 0zm24 0l-2.7-2.6a.2.2 0 010-.3 12.2 12.2 0 000-17.2.2.2 0 010-.3L32 1.2a.6.6 0 01.9 0c3.6 4 5.9 9.4 5.9 15s-2.3 11-5.9 15a.6.6 0 01-.9 0z" clip-rule="evenodd"/>
</svg>
